<svg width="192" height="192" viewBox="0 0 192 192" fill="none" xmlns="http://www.w3.org/2000/svg">
<rect width="192" height="192" rx="48" fill="url(#paint0_radial_656_7359)"/>
<path d="M96.0001 160C60.6906 160 32 131.284 32 96C32 60.7163 60.7163 32 96.0001 32C131.284 32 160 60.7163 160 96C160 131.284 131.284 160 96.0001 160ZM96.0001 37.1251C63.5493 37.1251 37.1509 63.5235 37.1509 95.9742C37.1509 128.425 63.5493 154.823 96.0001 154.823C128.451 154.823 154.849 128.425 154.849 95.9742C154.849 63.5235 128.451 37.1251 96.0001 37.1251Z" fill="#09090B"/>
<path d="M74 126.403V64H95.8141C100.167 64 103.747 64.7469 106.58 66.2406C109.413 67.7344 111.499 69.7433 112.889 72.2415C114.28 74.7397 114.95 77.5211 114.95 80.5859C114.95 83.2644 114.486 85.4793 113.533 87.2307C112.58 88.982 111.344 90.3469 109.825 91.3771C108.305 92.4073 106.631 93.1542 104.854 93.6435V94.2616C106.76 94.3904 108.691 95.0599 110.623 96.2704C112.555 97.4808 114.177 99.2323 115.465 101.524C116.753 103.817 117.422 106.572 117.422 109.869C117.422 113.165 116.701 115.818 115.285 118.316C113.868 120.814 111.627 122.798 108.537 124.266C105.472 125.734 101.48 126.455 96.561 126.455H74V126.403ZM81.5461 91.4285H95.5566C97.823 91.4285 99.8834 90.9908 101.738 90.0894C103.566 89.188 105.034 87.9259 106.116 86.3034C107.198 84.6808 107.738 82.7751 107.738 80.5859C107.738 77.856 106.786 75.5122 104.88 73.5806C102.974 71.649 99.9349 70.6961 95.7884 70.6961H81.5204V91.4285H81.5461ZM81.5461 119.707H96.5352C101.48 119.707 104.983 118.754 107.069 116.823C109.155 114.891 110.185 112.573 110.185 109.817C110.185 107.705 109.644 105.748 108.563 103.945C107.481 102.143 105.961 100.7 103.953 99.6186C101.969 98.5369 99.6 97.996 96.8701 97.996H81.5204V119.681L81.5461 119.707Z" fill="#09090B"/>
<defs>
<radialGradient id="paint0_radial_656_7359" cx="0" cy="0" r="1" gradientUnits="userSpaceOnUse" gradientTransform="translate(-9.28001 -72.32) rotate(63.0556) scale(389.12 466.181)">
<stop offset="0.24" stop-color="#F72121"/>
<stop offset="0.71" stop-color="#FF9500"/>
<stop offset="1" stop-color="#F0D047"/>
</radialGradient>
</defs>
</svg>
