<svg width="1818" height="310" viewBox="0 0 1818 310" fill="none" xmlns="http://www.w3.org/2000/svg">
<path d="M1315.9 219V84.2321H1328.2V207.945H1392.43V219H1315.9ZM1456.98 221.106C1448.25 221.106 1440.53 218.89 1433.82 214.459C1427.15 210.029 1421.93 203.909 1418.16 196.1C1414.39 188.247 1412.5 179.188 1412.5 168.923C1412.5 158.569 1414.39 149.466 1418.16 141.614C1421.93 133.717 1427.15 127.575 1433.82 123.188C1440.53 118.758 1448.25 116.542 1456.98 116.542C1465.71 116.542 1473.41 118.758 1480.08 123.188C1486.75 127.619 1491.97 133.761 1495.74 141.614C1499.56 149.466 1501.47 158.569 1501.47 168.923C1501.47 179.188 1499.58 188.247 1495.81 196.1C1492.04 203.909 1486.79 210.029 1480.08 214.459C1473.41 218.89 1465.71 221.106 1456.98 221.106ZM1456.98 210.38C1464 210.38 1469.95 208.493 1474.82 204.72C1479.69 200.948 1483.37 195.925 1485.87 189.651C1488.42 183.378 1489.69 176.468 1489.69 168.923C1489.69 161.377 1488.42 154.446 1485.87 148.128C1483.37 141.811 1479.69 136.744 1474.82 132.928C1469.95 129.111 1464 127.203 1456.98 127.203C1450.01 127.203 1444.06 129.111 1439.15 132.928C1434.28 136.744 1430.57 141.811 1428.03 148.128C1425.53 154.446 1424.28 161.377 1424.28 168.923C1424.28 176.468 1425.53 183.378 1428.03 189.651C1430.57 195.925 1434.28 200.948 1439.15 204.72C1444.02 208.493 1449.96 210.38 1456.98 210.38ZM1555.41 221.303C1549.31 221.303 1543.74 220.119 1538.7 217.75C1533.65 215.337 1529.64 211.871 1526.65 207.353C1523.67 202.79 1522.18 197.263 1522.18 190.77C1522.18 185.769 1523.12 181.557 1525.01 178.135C1526.9 174.713 1529.57 171.906 1533.04 169.712C1536.5 167.519 1540.61 165.786 1545.34 164.514C1550.08 163.242 1555.3 162.254 1561 161.553C1566.66 160.851 1571.45 160.236 1575.35 159.71C1579.3 159.184 1582.3 158.35 1584.37 157.209C1586.43 156.069 1587.46 154.226 1587.46 151.682V149.313C1587.46 142.425 1585.4 137.007 1581.27 133.059C1577.19 129.067 1571.31 127.071 1563.64 127.071C1556.35 127.071 1550.41 128.672 1545.8 131.875C1541.24 135.077 1538.04 138.85 1536.2 143.193L1525.08 139.179C1527.36 133.651 1530.52 129.242 1534.55 125.952C1538.59 122.618 1543.11 120.227 1548.11 118.78C1553.11 117.288 1558.18 116.542 1563.31 116.542C1567.17 116.542 1571.18 117.047 1575.35 118.056C1579.56 119.065 1583.47 120.819 1587.06 123.32C1590.66 125.777 1593.58 129.221 1595.82 133.651C1598.05 138.038 1599.17 143.61 1599.17 150.366V219H1587.46V203.009H1586.73C1585.33 205.993 1583.25 208.888 1580.48 211.696C1577.72 214.503 1574.25 216.807 1570.09 218.605C1565.92 220.404 1561.03 221.303 1555.41 221.303ZM1556.99 210.577C1563.22 210.577 1568.62 209.195 1573.18 206.431C1577.74 203.668 1581.25 200.004 1583.71 195.442C1586.21 190.836 1587.46 185.769 1587.46 180.241V165.632C1586.58 166.466 1585.11 167.212 1583.05 167.87C1581.03 168.528 1578.68 169.12 1576.01 169.647C1573.38 170.129 1570.74 170.546 1568.11 170.897C1565.48 171.248 1563.11 171.555 1561 171.818C1555.3 172.52 1550.43 173.617 1546.4 175.108C1542.36 176.6 1539.27 178.662 1537.12 181.294C1534.97 183.882 1533.89 187.216 1533.89 191.296C1533.89 197.438 1536.09 202.198 1540.47 205.576C1544.86 208.91 1550.37 210.577 1556.99 210.577ZM1642.04 155.828V219H1630.33V117.924H1641.71V133.783H1642.77C1645.14 128.606 1648.82 124.461 1653.82 121.346C1658.87 118.187 1665.1 116.608 1672.51 116.608C1679.31 116.608 1685.28 118.034 1690.41 120.885C1695.59 123.693 1699.6 127.839 1702.45 133.322C1705.35 138.806 1706.79 145.54 1706.79 153.524V219H1695.08V154.248C1695.08 145.957 1692.76 139.398 1688.11 134.573C1683.5 129.747 1677.31 127.334 1669.55 127.334C1664.24 127.334 1659.53 128.475 1655.4 130.756C1651.28 133.037 1648.01 136.327 1645.6 140.627C1643.23 144.882 1642.04 149.949 1642.04 155.828ZM1805.55 140.1L1794.83 143.127C1793.77 140.1 1792.28 137.358 1790.35 134.902C1788.42 132.445 1785.9 130.493 1782.78 129.045C1779.71 127.597 1775.9 126.874 1771.33 126.874C1764.49 126.874 1758.87 128.497 1754.49 131.743C1750.1 134.989 1747.91 139.179 1747.91 144.312C1747.91 148.655 1749.4 152.186 1752.38 154.906C1755.41 157.582 1760.06 159.71 1766.33 161.289L1781.6 165.04C1790.07 167.102 1796.4 170.37 1800.62 174.845C1804.87 179.32 1807 184.935 1807 191.691C1807 197.394 1805.42 202.461 1802.26 206.892C1799.1 211.323 1794.69 214.81 1789.03 217.355C1783.42 219.855 1776.9 221.106 1769.49 221.106C1759.62 221.106 1751.48 218.89 1745.08 214.459C1738.67 209.985 1734.57 203.536 1732.77 195.113L1744.02 192.349C1745.47 198.359 1748.3 202.9 1752.51 205.971C1756.77 209.042 1762.36 210.577 1769.29 210.577C1777.06 210.577 1783.27 208.844 1787.92 205.378C1792.57 201.869 1794.89 197.482 1794.89 192.218C1794.89 188.138 1793.53 184.716 1790.81 181.952C1788.09 179.144 1783.97 177.082 1778.44 175.766L1761.92 171.818C1753.15 169.712 1746.66 166.378 1742.44 161.816C1738.23 157.253 1736.13 151.594 1736.13 144.838C1736.13 139.267 1737.64 134.375 1740.67 130.164C1743.69 125.908 1747.86 122.574 1753.17 120.161C1758.48 117.749 1764.53 116.542 1771.33 116.542C1780.59 116.542 1787.98 118.648 1793.51 122.859C1799.08 127.027 1803.09 132.774 1805.55 140.1Z" fill="white"/>
<path d="M1214 0V310" stroke="url(#paint0_linear_743_27)" stroke-width="11.0555" stroke-miterlimit="10"/>
<path d="M100 252C44.8289 252 0 207.131 0 152C0 96.8692 44.8692 52 100 52C155.131 52 200 96.8692 200 152C200 207.131 155.131 252 100 252ZM100 60.008C49.2957 60.008 8.04829 101.256 8.04829 151.96C8.04829 202.664 49.2957 243.911 100 243.911C150.704 243.911 191.952 202.664 191.952 151.96C191.952 101.256 150.704 60.008 100 60.008Z" fill="white"/>
<path d="M66.0762 200.734V103.229H100.161C106.961 103.229 112.555 104.396 116.982 106.73C121.408 109.064 124.668 112.202 126.841 116.106C129.014 120.009 130.06 124.355 130.06 129.144C130.06 133.329 129.336 136.79 127.847 139.526C126.358 142.263 124.426 144.396 122.052 146.005C119.678 147.615 117.062 148.782 114.285 149.546V150.512C117.263 150.713 120.281 151.76 123.3 153.651C126.318 155.542 128.853 158.279 130.865 161.86C132.877 165.442 133.923 169.748 133.923 174.899C133.923 180.049 132.797 184.194 130.583 188.098C128.37 192.001 124.869 195.1 120.04 197.394C115.251 199.687 109.014 200.814 101.328 200.814H66.0762V200.734ZM77.8669 146.086H99.7583C103.299 146.086 106.519 145.402 109.416 143.993C112.273 142.585 114.567 140.613 116.257 138.078C117.947 135.542 118.793 132.565 118.793 129.144C118.793 124.878 117.304 121.216 114.326 118.198C111.348 115.18 106.599 113.691 100.12 113.691H77.8267V146.086H77.8669ZM77.8669 190.271H101.287C109.014 190.271 114.487 188.782 117.746 185.764C121.006 182.746 122.615 179.124 122.615 174.818C122.615 171.518 121.77 168.46 120.08 165.643C118.39 162.826 116.016 160.573 112.877 158.882C109.778 157.192 106.076 156.347 101.811 156.347H77.8267V190.231L77.8669 190.271Z" fill="white"/>
<path d="M327.848 252C272.677 252 227.848 207.131 227.848 152C227.848 96.8692 272.717 52 327.848 52C382.979 52 427.848 96.8692 427.848 152C427.848 207.131 382.979 252 327.848 252ZM327.848 60.008C277.143 60.008 235.896 101.256 235.896 151.96C235.896 202.664 277.143 243.911 327.848 243.911C378.552 243.911 419.799 202.664 419.799 151.96C419.799 101.256 378.552 60.008 327.848 60.008Z" fill="white"/>
<path d="M292.879 200.734V103.229H325.837C333.442 103.229 339.72 104.516 344.589 107.092C349.458 109.667 353.08 113.208 355.454 117.715C357.788 122.222 358.996 127.333 358.996 133.088C358.996 138.842 357.829 143.913 355.454 148.379C353.08 152.846 349.499 156.307 344.629 158.842C339.76 161.377 333.563 162.625 325.998 162.625H299.317V151.961H325.595C330.786 151.961 335.012 151.196 338.191 149.667C341.37 148.138 343.704 145.965 345.153 143.148C346.601 140.331 347.326 136.991 347.326 133.088C347.326 129.184 346.601 125.764 345.153 122.866C343.704 119.969 341.37 117.675 338.151 116.066C334.931 114.456 330.706 113.651 325.434 113.651H304.67V200.693H292.879V200.734ZM338.794 156.911L362.778 200.734H349.056L325.434 156.911H338.754H338.794Z" fill="white"/>
<path d="M555.293 252C500.122 252 455.293 207.131 455.293 152C455.293 96.8692 500.162 52 555.293 52C610.424 52 655.293 96.8692 655.293 152C655.293 207.131 610.424 252 555.293 252ZM555.293 60.008C504.589 60.008 463.341 101.256 463.341 151.96C463.341 202.664 504.589 243.911 555.293 243.911C605.997 243.911 647.245 202.664 647.245 151.96C647.245 101.256 605.997 60.008 555.293 60.008Z" fill="white"/>
<path d="M520.324 200.734V103.229H553.282C560.888 103.229 567.165 104.516 572.035 107.092C576.904 109.667 580.525 113.208 582.9 117.715C585.234 122.222 586.441 127.333 586.441 133.088C586.441 138.842 585.274 143.913 582.9 148.379C580.525 152.846 576.944 156.307 572.075 158.842C567.205 161.377 561.008 162.625 553.443 162.625H526.763V151.961H553.041C558.232 151.961 562.457 151.196 565.636 149.667C568.815 148.138 571.149 145.965 572.598 143.148C574.047 140.331 574.771 136.991 574.771 133.088C574.771 129.184 574.047 125.764 572.598 122.866C571.149 119.969 568.815 117.675 565.596 116.066C562.377 114.456 558.151 113.651 552.88 113.651H532.115V200.693H520.324V200.734ZM566.24 156.911L590.224 200.734H576.501L552.88 156.911H566.199H566.24Z" fill="white"/>
<path d="M782.695 252C727.524 252 682.695 207.131 682.695 152C682.695 96.8692 727.565 52 782.695 52C837.826 52 882.695 96.8692 882.695 152C882.695 207.131 837.826 252 782.695 252ZM782.695 60.008C731.991 60.008 690.744 101.256 690.744 151.96C690.744 202.664 731.991 243.911 782.695 243.911C833.4 243.911 874.647 202.664 874.647 151.96C874.647 101.256 833.4 60.008 782.695 60.008Z" fill="white"/>
<path d="M747.726 200.734V103.229H780.683C788.289 103.229 794.567 104.516 799.436 107.092C804.305 109.667 807.927 113.208 810.301 117.715C812.635 122.222 813.842 127.333 813.842 133.088C813.842 138.842 812.675 143.913 810.301 148.379C807.927 152.846 804.345 156.307 799.476 158.842C794.607 161.377 788.41 162.625 780.844 162.625H754.164V151.961H780.442C785.633 151.961 789.858 151.196 793.037 149.667C796.216 148.138 798.551 145.965 799.999 143.148C801.448 140.331 802.172 136.991 802.172 133.088C802.172 129.184 801.448 125.764 799.999 122.866C798.551 119.969 796.217 117.675 792.997 116.066C789.778 114.456 785.553 113.651 780.281 113.651H759.516V200.693H747.726V200.734ZM793.641 156.911L817.625 200.734H803.903L780.281 156.911H793.601H793.641Z" fill="white"/>
<path d="M1010.14 252C954.969 252 910.14 207.131 910.14 152C910.14 96.8692 955.009 52 1010.14 52C1065.27 52 1110.14 96.8692 1110.14 152C1110.14 207.131 1065.27 252 1010.14 252ZM1010.14 60.008C959.435 60.008 918.188 101.256 918.188 151.96C918.188 202.664 959.435 243.911 1010.14 243.911C1060.84 243.911 1102.09 202.664 1102.09 151.96C1102.09 101.256 1060.84 60.008 1010.14 60.008Z" fill="white"/>
<path d="M1033.28 200.734V113.692H1012.51C1007.24 113.692 1003.02 114.497 999.799 116.107C996.579 117.716 994.245 119.97 992.797 122.907C991.348 125.845 990.624 129.225 990.624 133.129C990.624 137.032 991.348 140.372 992.797 143.189C994.245 146.006 996.539 148.179 999.758 149.708C1002.98 151.237 1007.16 152.002 1012.35 152.002H1038.63V162.666H1011.95C1004.39 162.666 998.189 161.418 993.32 158.883C988.451 156.348 984.869 152.887 982.495 148.42C980.121 143.954 978.954 138.883 978.954 133.129C978.954 127.374 980.121 122.264 982.495 117.756C984.829 113.249 988.451 109.708 993.36 107.133C998.229 104.557 1004.51 103.27 1012.11 103.27H1045.07V200.775H1033.28V200.734ZM1012.51 156.911L988.893 200.734H975.171L999.155 156.911H1012.47H1012.51Z" fill="white"/>
<path d="M1131.07 92.8048C1128.25 92.8048 1125.59 92.2817 1123.14 91.2354C1120.68 90.1891 1118.51 88.7002 1116.62 86.8491C1114.73 84.998 1113.28 82.825 1112.23 80.33C1111.19 77.8753 1110.66 75.2193 1110.66 72.4024C1110.66 69.5855 1111.19 66.9296 1112.23 64.4748C1113.28 62.0201 1114.73 59.8471 1116.62 57.9557C1118.51 56.0644 1120.64 54.6157 1123.14 53.5694C1125.63 52.5231 1128.25 52 1131.07 52C1133.88 52 1136.54 52.5231 1138.99 53.5694C1141.45 54.6157 1143.62 56.0644 1145.51 57.9557C1147.4 59.8471 1148.85 61.9799 1149.9 64.4748C1150.94 66.9296 1151.47 69.5855 1151.47 72.4024C1151.47 75.2193 1150.94 77.8753 1149.9 80.33C1148.85 82.7847 1147.36 84.9578 1145.51 86.8491C1143.66 88.7405 1141.49 90.1891 1138.99 91.2354C1136.54 92.2817 1133.88 92.8048 1131.07 92.8048ZM1131.07 91.1549C1134.53 91.1549 1137.71 90.3099 1140.52 88.6197C1143.38 86.9296 1145.63 84.6761 1147.32 81.8189C1149.01 78.9618 1149.86 75.8229 1149.86 72.3622C1149.86 68.9014 1149.01 65.7223 1147.32 62.9054C1145.63 60.0483 1143.38 57.7948 1140.52 56.1046C1137.67 54.4145 1134.53 53.5694 1131.07 53.5694C1127.6 53.5694 1124.47 54.4145 1121.61 56.1046C1118.75 57.7948 1116.5 60.0483 1114.81 62.9054C1113.12 65.7626 1112.27 68.9014 1112.27 72.3622C1112.27 75.8229 1113.12 78.9618 1114.81 81.8189C1116.5 84.6761 1118.75 86.9296 1121.61 88.6197C1124.47 90.3099 1127.6 91.1549 1131.07 91.1549ZM1124.59 81.5775V62.7445H1132.64C1133.92 62.7445 1135.01 62.9859 1135.89 63.4688C1136.78 63.9517 1137.46 64.6358 1137.95 65.4407C1138.43 66.2455 1138.63 67.2515 1138.63 68.338C1138.63 69.4245 1138.39 70.3903 1137.95 71.2757C1137.5 72.161 1136.78 72.8048 1135.89 73.328C1135.01 73.8109 1133.92 74.0926 1132.64 74.0926H1125.43V72.4427H1132.59C1134.08 72.4427 1135.17 72.0805 1135.93 71.3159C1136.66 70.5916 1137.06 69.5855 1137.06 68.338C1137.06 67.0905 1136.7 66.0845 1135.93 65.4004C1135.21 64.7163 1134.08 64.3541 1132.59 64.3541H1126.24V81.5372H1124.59V81.5775ZM1134.81 73.1268L1139.44 81.5775H1137.54L1133 73.1268H1134.77H1134.81Z" fill="white"/>
<defs>
<linearGradient id="paint0_linear_743_27" x1="1200.5" y1="44" x2="1239.41" y2="47.4697" gradientUnits="userSpaceOnUse">
<stop offset="0.24" stop-color="#F72121"/>
<stop offset="0.71" stop-color="#FF9500"/>
<stop offset="1" stop-color="#F0D047"/>
</linearGradient>
</defs>
</svg>
