<svg width="448" height="152" viewBox="0 0 448 152" fill="none" xmlns="http://www.w3.org/2000/svg">
<path d="M196.949 108V40.616H203.102V102.472H235.215V108H196.949ZM267.492 109.053C263.127 109.053 259.266 107.945 255.91 105.73C252.576 103.514 249.966 100.454 248.08 96.55C246.193 92.6236 245.25 88.0941 245.25 82.9613C245.25 77.7847 246.193 73.2332 248.08 69.3069C249.966 65.3586 252.576 62.2877 255.91 60.0942C259.266 57.8788 263.127 56.7711 267.492 56.7711C271.857 56.7711 275.707 57.8788 279.041 60.0942C282.375 62.3096 284.985 65.3805 286.871 69.3069C288.78 73.2332 289.734 77.7847 289.734 82.9613C289.734 88.0941 288.791 92.6236 286.904 96.55C285.018 100.454 282.397 103.514 279.041 105.73C275.707 107.945 271.857 109.053 267.492 109.053ZM267.492 103.69C271.002 103.69 273.974 102.747 276.409 100.86C278.843 98.9738 280.686 96.4623 281.936 93.3256C283.208 90.1889 283.844 86.7341 283.844 82.9613C283.844 79.1885 283.208 75.7228 281.936 72.5642C280.686 69.4056 278.843 66.8721 276.409 64.9638C273.974 63.0554 271.002 62.1013 267.492 62.1013C264.004 62.1013 261.032 63.0554 258.575 64.9638C256.141 66.8721 254.287 69.4056 253.015 72.5642C251.765 75.7228 251.14 79.1885 251.14 82.9613C251.14 86.7341 251.765 90.1889 253.015 93.3256C254.287 96.4623 256.141 98.9738 258.575 100.86C261.01 102.747 263.982 103.69 267.492 103.69ZM316.706 109.152C313.657 109.152 310.871 108.559 308.348 107.375C305.826 106.168 303.819 104.436 302.327 102.176C300.836 99.8951 300.09 97.1313 300.09 93.8849C300.09 91.3843 300.562 89.2786 301.505 87.5677C302.448 85.8567 303.786 84.4529 305.519 83.3562C307.252 82.2594 309.303 81.393 311.672 80.7569C314.041 80.1208 316.651 79.6272 319.502 79.2763C322.332 78.9253 324.723 78.6182 326.675 78.355C328.649 78.0918 330.152 77.675 331.183 77.1047C332.214 76.5344 332.729 75.6132 332.729 74.3409V73.1564C332.729 69.7127 331.698 67.0037 329.636 65.0296C327.596 63.0335 324.657 62.0355 320.818 62.0355C317.177 62.0355 314.205 62.8361 311.902 64.4373C309.621 66.0386 308.019 67.925 307.098 70.0965L301.538 68.0895C302.678 65.3257 304.258 63.1212 306.276 61.4761C308.294 59.8091 310.553 58.6136 313.053 57.8898C315.554 57.144 318.088 56.7711 320.654 56.7711C322.584 56.7711 324.591 57.0233 326.675 57.5278C328.781 58.0323 330.733 58.9097 332.532 60.16C334.33 61.3884 335.789 63.1103 336.908 65.3257C338.026 67.5192 338.586 70.3049 338.586 73.6829V108H332.729V100.005H332.367C331.665 101.496 330.623 102.944 329.241 104.348C327.86 105.752 326.127 106.903 324.043 107.803C321.959 108.702 319.513 109.152 316.706 109.152ZM317.495 103.789C320.61 103.789 323.308 103.098 325.589 101.716C327.871 100.334 329.625 98.5022 330.854 96.221C332.104 93.9178 332.729 91.3843 332.729 88.6205V81.3162C332.29 81.733 331.556 82.1059 330.525 82.4349C329.516 82.7639 328.342 83.06 327.004 83.3233C325.688 83.5645 324.372 83.7729 323.056 83.9484C321.74 84.1239 320.555 84.2774 319.502 84.409C316.651 84.76 314.216 85.3084 312.198 86.0542C310.18 86.7999 308.634 87.8309 307.559 89.147C306.484 90.4411 305.947 92.1082 305.947 94.1481C305.947 97.219 307.043 99.5989 309.237 101.288C311.43 102.955 314.183 103.789 317.495 103.789ZM360.022 76.4138V108H354.165V57.462H359.857V65.3915H360.383C361.568 62.8032 363.41 60.7303 365.911 59.173C368.434 57.5936 371.548 56.804 375.255 56.804C378.655 56.804 381.638 57.5169 384.205 58.9426C386.793 60.3465 388.8 62.4193 390.226 65.1612C391.674 67.903 392.397 71.27 392.397 75.2622V108H386.541V75.6241C386.541 71.4784 385.378 68.1992 383.053 65.7863C380.75 63.3735 377.657 62.1671 373.775 62.1671C371.121 62.1671 368.763 62.7374 366.701 63.878C364.639 65.0186 363.005 66.6637 361.798 68.8133C360.614 70.941 360.022 73.4745 360.022 76.4138ZM441.776 68.5501L436.413 70.0636C435.886 68.5501 435.14 67.1792 434.175 65.9508C433.21 64.7225 431.949 63.7464 430.391 63.0225C428.856 62.2987 426.948 61.9368 424.666 61.9368C421.245 61.9368 418.437 62.7483 416.243 64.3715C414.05 65.9947 412.953 68.0895 412.953 70.6559C412.953 72.8274 413.699 74.5932 415.191 75.9531C416.704 77.2912 419.029 78.355 422.166 79.1447L429.799 81.0201C434.033 82.051 437.202 83.6852 439.308 85.9225C441.436 88.1599 442.499 90.9676 442.499 94.3455C442.499 97.1971 441.71 99.7306 440.13 101.946C438.551 104.161 436.347 105.905 433.517 107.177C430.709 108.428 427.452 109.053 423.745 109.053C418.81 109.053 414.741 107.945 411.538 105.73C408.336 103.492 406.285 100.268 405.386 96.0565L411.012 94.6746C411.736 97.6796 413.151 99.9499 415.256 101.485C417.384 103.021 420.181 103.789 423.646 103.789C427.529 103.789 430.633 102.922 432.958 101.189C435.283 99.4344 436.445 97.2409 436.445 94.6088C436.445 92.5688 435.765 90.8579 434.405 89.476C433.046 88.0722 430.984 87.0412 428.22 86.3832L419.961 84.409C415.574 83.3562 412.328 81.6891 410.222 79.4079C408.117 77.1267 407.064 74.2971 407.064 70.9191C407.064 68.1334 407.82 65.6876 409.334 63.5819C410.847 61.4542 412.931 59.7871 415.585 58.5807C418.239 57.3743 421.266 56.7711 424.666 56.7711C429.295 56.7711 432.991 57.824 435.754 59.9297C438.54 62.0135 440.547 64.887 441.776 68.5501Z" fill="white"/>
<path d="M104.284 46.239C102.861 46.239 101.52 45.979 100.28 45.459C99.0402 44.939 97.9427 44.1991 96.9875 43.2791C96.0323 42.3591 95.3006 41.2788 94.7722 40.0388C94.2437 38.8188 93.9795 37.4989 93.9795 36.0989C93.9795 34.6989 94.2437 33.3789 94.7722 32.1589C95.3006 30.9389 96.0323 29.8589 96.9875 28.9189C97.9427 27.9789 99.0199 27.259 100.28 26.739C101.54 26.219 102.861 25.959 104.284 25.959C105.707 25.959 107.048 26.219 108.288 26.739C109.527 27.259 110.625 27.9789 111.58 28.9189C112.535 29.8589 113.267 30.9189 113.796 32.1589C114.324 33.3789 114.588 34.6989 114.588 36.0989C114.588 37.4989 114.324 38.8188 113.796 40.0388C113.267 41.2588 112.515 42.3391 111.58 43.2791C110.645 44.2191 109.548 44.939 108.288 45.459C107.048 45.979 105.707 46.239 104.284 46.239ZM104.284 45.419C106.032 45.419 107.637 44.999 109.06 44.159C110.503 43.319 111.641 42.1991 112.495 40.7791C113.348 39.3591 113.775 37.7989 113.775 36.0789C113.775 34.3589 113.348 32.7789 112.495 31.3789C111.641 29.9589 110.503 28.839 109.06 27.999C107.617 27.159 106.032 26.739 104.284 26.739C102.536 26.739 100.951 27.159 99.5077 27.999C98.0646 28.839 96.9265 29.9589 96.0729 31.3789C95.2193 32.7989 94.7925 34.3589 94.7925 36.0789C94.7925 37.7989 95.2193 39.3591 96.0729 40.7791C96.9265 42.1991 98.0646 43.319 99.5077 44.159C100.951 44.999 102.536 45.419 104.284 45.419ZM101.012 40.6589V31.2988H105.077C105.727 31.2988 106.276 31.4189 106.723 31.6589C107.17 31.8989 107.515 32.2389 107.759 32.6389C108.003 33.0389 108.105 33.5389 108.105 34.0789C108.105 34.6189 107.983 35.0988 107.759 35.5388C107.536 35.9788 107.17 36.2988 106.723 36.5588C106.276 36.7988 105.727 36.939 105.077 36.939H101.438V36.1189H105.056C105.808 36.1189 106.357 35.9388 106.743 35.5588C107.109 35.1988 107.312 34.6989 107.312 34.0789C107.312 33.4589 107.129 32.9589 106.743 32.6189C106.377 32.2789 105.808 32.0989 105.056 32.0989H101.845V40.6389H101.012V40.6589ZM106.174 36.459L108.511 40.6589H107.556L105.259 36.459H106.154H106.174Z" fill="white"/>
<path d="M50.5054 125.39C22.6411 125.39 0 103.09 0 75.6902C0 48.2902 22.6614 25.9902 50.5054 25.9902C78.3495 25.9902 101.011 48.2902 101.011 75.6902C101.011 103.09 78.3495 125.39 50.5054 125.39ZM50.5054 29.9702C24.8971 29.9702 4.06482 50.4702 4.06482 75.6702C4.06482 100.87 24.8971 121.37 50.5054 121.37C76.1138 121.37 96.9461 100.87 96.9461 75.6702C96.9461 50.4702 76.1138 29.9702 50.5054 29.9702Z" fill="white"/>
<path d="M33.3965 99.9346V51.4746H50.611C54.0458 51.4746 56.8709 52.0546 59.1065 53.2146C61.3422 54.3746 62.9884 55.9345 64.0859 57.8745C65.1834 59.8145 65.7119 61.9745 65.7119 64.3545C65.7119 66.4345 65.346 68.1547 64.594 69.5147C63.842 70.8747 62.8665 71.9346 61.6673 72.7346C60.4682 73.5346 59.1472 74.1147 57.7448 74.4947V74.9746C59.2488 75.0746 60.7731 75.5947 62.2974 76.5347C63.8217 77.4747 65.1021 78.8345 66.1183 80.6145C67.1345 82.3945 67.663 84.5345 67.663 87.0945C67.663 89.6545 67.0939 91.7146 65.976 93.6546C64.8582 95.5946 63.09 97.1347 60.6511 98.2747C58.2326 99.4147 55.0823 99.9747 51.2004 99.9747H33.3965V99.9346ZM39.3515 72.7747H50.4078C52.1963 72.7747 53.8223 72.4346 55.2856 71.7346C56.7286 71.0346 57.8871 70.0547 58.7407 68.7947C59.5943 67.5347 60.0211 66.0545 60.0211 64.3545C60.0211 62.2345 59.2691 60.4146 57.7651 58.9146C56.2612 57.4146 53.8629 56.6746 50.5907 56.6746H39.3312V72.7747H39.3515ZM39.3515 94.7347H51.1801C55.0823 94.7347 57.8465 93.9947 59.4927 92.4947C61.139 90.9947 61.9519 89.1945 61.9519 87.0545C61.9519 85.4145 61.5251 83.8947 60.6715 82.4947C59.8179 81.0947 58.6187 79.9745 57.0334 79.1345C55.4685 78.2945 53.5987 77.8745 51.4443 77.8745H39.3312V94.7146L39.3515 94.7347Z" fill="white"/>
<path d="M146 0V151.34" stroke="url(#paint0_linear_679_7346)" stroke-width="5.52776" stroke-miterlimit="10"/>
<defs>
<linearGradient id="paint0_linear_679_7346" x1="128.354" y1="8.6685e-07" x2="174.244" y2="8.43601" gradientUnits="userSpaceOnUse">
<stop offset="0.24" stop-color="#F72121"/>
<stop offset="0.71" stop-color="#FF9500"/>
<stop offset="1" stop-color="#F0D047"/>
</linearGradient>
</defs>
</svg>
