<svg width="909" height="155" viewBox="0 0 909 155" fill="none" xmlns="http://www.w3.org/2000/svg">
<path d="M657.949 110V42.616H664.102V104.472H696.215V110H657.949ZM728.492 111.053C724.127 111.053 720.266 109.945 716.91 107.73C713.576 105.514 710.966 102.454 709.08 98.55C707.193 94.6236 706.25 90.0941 706.25 84.9613C706.25 79.7847 707.193 75.2332 709.08 71.3069C710.966 67.3586 713.576 64.2877 716.91 62.0942C720.266 59.8788 724.127 58.7711 728.492 58.7711C732.857 58.7711 736.707 59.8788 740.041 62.0942C743.375 64.3096 745.985 67.3805 747.871 71.3069C749.78 75.2332 750.734 79.7847 750.734 84.9613C750.734 90.0941 749.791 94.6236 747.904 98.55C746.018 102.454 743.397 105.514 740.041 107.73C736.707 109.945 732.857 111.053 728.492 111.053ZM728.492 105.69C732.002 105.69 734.974 104.747 737.409 102.86C739.843 100.974 741.686 98.4623 742.936 95.3256C744.208 92.1889 744.844 88.7341 744.844 84.9613C744.844 81.1885 744.208 77.7228 742.936 74.5642C741.686 71.4056 739.843 68.8721 737.409 66.9638C734.974 65.0554 732.002 64.1013 728.492 64.1013C725.004 64.1013 722.032 65.0554 719.575 66.9638C717.141 68.8721 715.287 71.4056 714.015 74.5642C712.765 77.7228 712.14 81.1885 712.14 84.9613C712.14 88.7341 712.765 92.1889 714.015 95.3256C715.287 98.4623 717.141 100.974 719.575 102.86C722.01 104.747 724.982 105.69 728.492 105.69ZM777.706 111.152C774.657 111.152 771.871 110.559 769.348 109.375C766.826 108.168 764.819 106.436 763.327 104.176C761.836 101.895 761.09 99.1313 761.09 95.8849C761.09 93.3843 761.562 91.2786 762.505 89.5677C763.448 87.8567 764.786 86.4529 766.519 85.3562C768.252 84.2594 770.303 83.393 772.672 82.7569C775.041 82.1208 777.651 81.6272 780.502 81.2763C783.332 80.9253 785.723 80.6182 787.675 80.355C789.649 80.0918 791.152 79.675 792.183 79.1047C793.214 78.5344 793.729 77.6132 793.729 76.3409V75.1564C793.729 71.7127 792.698 69.0037 790.636 67.0296C788.596 65.0335 785.657 64.0355 781.818 64.0355C778.177 64.0355 775.205 64.8361 772.902 66.4373C770.621 68.0386 769.019 69.925 768.098 72.0965L762.538 70.0895C763.678 67.3257 765.258 65.1212 767.276 63.4761C769.294 61.8091 771.553 60.6136 774.053 59.8898C776.554 59.144 779.088 58.7711 781.654 58.7711C783.584 58.7711 785.591 59.0233 787.675 59.5278C789.781 60.0323 791.733 60.9097 793.532 62.16C795.33 63.3884 796.789 65.1103 797.908 67.3257C799.026 69.5192 799.586 72.3049 799.586 75.6829V110H793.729V102.005H793.367C792.665 103.496 791.623 104.944 790.241 106.348C788.86 107.752 787.127 108.903 785.043 109.803C782.959 110.702 780.513 111.152 777.706 111.152ZM778.495 105.789C781.61 105.789 784.308 105.098 786.589 103.716C788.871 102.334 790.625 100.502 791.854 98.221C793.104 95.9178 793.729 93.3843 793.729 90.6205V83.3162C793.29 83.733 792.556 84.1059 791.525 84.4349C790.516 84.7639 789.342 85.06 788.004 85.3233C786.688 85.5645 785.372 85.7729 784.056 85.9484C782.74 86.1239 781.555 86.2774 780.502 86.409C777.651 86.76 775.216 87.3084 773.198 88.0542C771.18 88.7999 769.634 89.8309 768.559 91.147C767.484 92.4411 766.947 94.1082 766.947 96.1481C766.947 99.219 768.043 101.599 770.237 103.288C772.43 104.955 775.183 105.789 778.495 105.789ZM821.022 78.4138V110H815.165V59.462H820.857V67.3915H821.383C822.568 64.8032 824.41 62.7303 826.911 61.173C829.434 59.5936 832.548 58.804 836.255 58.804C839.655 58.804 842.638 59.5169 845.205 60.9426C847.793 62.3465 849.8 64.4193 851.226 67.1612C852.674 69.903 853.397 73.27 853.397 77.2622V110H847.541V77.6241C847.541 73.4784 846.378 70.1992 844.053 67.7863C841.75 65.3735 838.657 64.1671 834.775 64.1671C832.121 64.1671 829.763 64.7374 827.701 65.878C825.639 67.0186 824.005 68.6637 822.798 70.8133C821.614 72.941 821.022 75.4745 821.022 78.4138ZM902.776 70.5501L897.413 72.0636C896.886 70.5501 896.14 69.1792 895.175 67.9508C894.21 66.7225 892.949 65.7464 891.391 65.0225C889.856 64.2987 887.948 63.9368 885.666 63.9368C882.245 63.9368 879.437 64.7483 877.243 66.3715C875.05 67.9947 873.953 70.0895 873.953 72.6559C873.953 74.8274 874.699 76.5932 876.191 77.9531C877.704 79.2912 880.029 80.355 883.166 81.1447L890.799 83.0201C895.033 84.051 898.202 85.6852 900.308 87.9225C902.436 90.1599 903.499 92.9676 903.499 96.3455C903.499 99.1971 902.71 101.731 901.13 103.946C899.551 106.161 897.347 107.905 894.517 109.177C891.709 110.428 888.452 111.053 884.745 111.053C879.81 111.053 875.741 109.945 872.538 107.73C869.336 105.492 867.285 102.268 866.386 98.0565L872.012 96.6746C872.736 99.6796 874.151 101.95 876.256 103.485C878.384 105.021 881.181 105.789 884.646 105.789C888.529 105.789 891.633 104.922 893.958 103.189C896.283 101.434 897.445 99.2409 897.445 96.6088C897.445 94.5688 896.765 92.8579 895.405 91.476C894.046 90.0722 891.984 89.0412 889.22 88.3832L880.961 86.409C876.574 85.3562 873.328 83.6891 871.222 81.4079C869.117 79.1267 868.064 76.2971 868.064 72.9191C868.064 70.1334 868.82 67.6876 870.334 65.5819C871.847 63.4542 873.931 61.7871 876.585 60.5807C879.239 59.3743 882.266 58.7711 885.666 58.7711C890.295 58.7711 893.991 59.824 896.754 61.9297C899.54 64.0135 901.547 66.887 902.776 70.5501Z" fill="#0C0C0C"/>
<path d="M607 0V155" stroke="url(#paint0_linear_703_7355)" stroke-width="5.52776" stroke-miterlimit="10"/>
<path d="M50 126C22.4145 126 0 103.565 0 76C0 48.4346 22.4346 26 50 26C77.5654 26 100 48.4346 100 76C100 103.565 77.5654 126 50 126ZM50 30.004C24.6479 30.004 4.02415 50.6278 4.02415 75.9799C4.02415 101.332 24.6479 121.956 50 121.956C75.3521 121.956 95.9759 101.332 95.9759 75.9799C95.9759 50.6278 75.3521 30.004 50 30.004Z" fill="#0C0C0C"/>
<path d="M33.0381 100.367V51.6143H50.0803C53.4807 51.6143 56.2775 52.1978 58.4908 53.3648C60.7041 54.5318 62.3339 56.1012 63.4204 58.0529C64.5069 60.0046 65.03 62.1776 65.03 64.572C65.03 66.6646 64.6679 68.3949 63.9234 69.7631C63.1789 71.1314 62.2131 72.1978 61.026 73.0026C59.8389 73.8074 58.5311 74.3909 57.1427 74.7732V75.2561C58.6317 75.3567 60.1407 75.8799 61.6498 76.8255C63.1588 77.7712 64.4264 79.1394 65.4325 80.9302C66.4385 82.7209 66.9617 84.8738 66.9617 87.4493C66.9617 90.0247 66.3983 92.0972 65.2916 94.0489C64.185 96.0006 62.4345 97.5499 60.02 98.6968C57.6256 99.8436 54.5069 100.407 50.6639 100.407H33.0381V100.367ZM38.9334 73.0428H49.8791C51.6497 73.0428 53.2594 72.7008 54.7081 71.9965C56.1367 71.2923 57.2836 70.3064 58.1286 69.0388C58.9737 67.7712 59.3963 66.2823 59.3963 64.572C59.3963 62.4392 58.6518 60.6082 57.1628 59.0992C55.6739 57.5901 53.2996 56.8456 50.0602 56.8456H38.9134V73.0428H38.9334ZM38.9334 95.1354H50.6437C54.5069 95.1354 57.2433 94.3909 58.8731 92.8819C60.5029 91.3728 61.3077 89.562 61.3077 87.409C61.3077 85.7591 60.8852 84.23 60.0401 82.8215C59.1951 81.4131 58.0079 80.2863 56.4385 79.4412C54.8892 78.5961 53.0381 78.1736 50.9053 78.1736H38.9134V95.1153L38.9334 95.1354Z" fill="#0C0C0C"/>
<path d="M163.924 126C136.338 126 113.924 103.565 113.924 76C113.924 48.4346 136.358 26 163.924 26C191.489 26 213.924 48.4346 213.924 76C213.924 103.565 191.489 126 163.924 126ZM163.924 30.004C138.572 30.004 117.948 50.6278 117.948 75.9799C117.948 101.332 138.572 121.956 163.924 121.956C189.276 121.956 209.9 101.332 209.9 75.9799C209.9 50.6278 189.276 30.004 163.924 30.004Z" fill="#0C0C0C"/>
<path d="M146.439 100.367V51.6143H162.918C166.721 51.6143 169.86 52.2581 172.295 53.5458C174.729 54.8336 176.54 56.6042 177.727 58.8577C178.894 61.1112 179.498 63.6666 179.498 66.5438C179.498 69.4211 178.914 71.9563 177.727 74.1897C176.54 76.4231 174.749 78.1535 172.315 79.4211C169.88 80.6887 166.781 81.3125 162.999 81.3125H149.659V75.9805H162.798C165.393 75.9805 167.506 75.5982 169.095 74.8336C170.685 74.069 171.852 72.9825 172.576 71.574C173.301 70.1656 173.663 68.4956 173.663 66.5438C173.663 64.5921 173.301 62.8819 172.576 61.4332C171.852 59.9845 170.685 58.8376 169.075 58.0328C167.466 57.2279 165.353 56.8255 162.717 56.8255H152.335V100.347H146.439V100.367ZM169.397 78.4553L181.389 100.367H174.528L162.717 78.4553H169.377H169.397Z" fill="#0C0C0C"/>
<path d="M277.647 126C250.061 126 227.646 103.565 227.646 76C227.646 48.4346 250.081 26 277.647 26C305.212 26 327.647 48.4346 327.647 76C327.647 103.565 305.212 126 277.647 126ZM277.647 30.004C252.294 30.004 231.671 50.6278 231.671 75.9799C231.671 101.332 252.294 121.956 277.647 121.956C302.999 121.956 323.622 101.332 323.622 75.9799C323.622 50.6278 302.999 30.004 277.647 30.004Z" fill="#0C0C0C"/>
<path d="M260.162 100.367V51.6143H276.641C280.444 51.6143 283.583 52.2581 286.017 53.5458C288.452 54.8336 290.263 56.6042 291.45 58.8577C292.617 61.1112 293.22 63.6666 293.22 66.5438C293.22 69.4211 292.637 71.9563 291.45 74.1897C290.263 76.4231 288.472 78.1535 286.037 79.4211C283.603 80.6887 280.504 81.3125 276.721 81.3125H263.381V75.9805H276.52C279.116 75.9805 281.229 75.5982 282.818 74.8336C284.408 74.069 285.575 72.9825 286.299 71.574C287.023 70.1656 287.385 68.4956 287.385 66.5438C287.385 64.5921 287.023 62.8819 286.299 61.4332C285.575 59.9845 284.408 58.8376 282.798 58.0328C281.188 57.2279 279.076 56.8255 276.44 56.8255H266.057V100.347H260.162V100.367ZM283.12 78.4553L295.112 100.367H288.251L276.44 78.4553H283.1H283.12Z" fill="#0C0C0C"/>
<path d="M391.348 126C363.762 126 341.348 103.565 341.348 76C341.348 48.4346 363.782 26 391.348 26C418.913 26 441.348 48.4346 441.348 76C441.348 103.565 418.913 126 391.348 126ZM391.348 30.004C365.996 30.004 345.372 50.6278 345.372 75.9799C345.372 101.332 365.996 121.956 391.348 121.956C416.7 121.956 437.323 101.332 437.323 75.9799C437.323 50.6278 416.7 30.004 391.348 30.004Z" fill="#0C0C0C"/>
<path d="M373.863 100.367V51.6143H390.342C394.144 51.6143 397.283 52.2581 399.718 53.5458C402.152 54.8336 403.963 56.6042 405.151 58.8577C406.318 61.1112 406.921 63.6666 406.921 66.5438C406.921 69.4211 406.338 71.9563 405.151 74.1897C403.963 76.4231 402.173 78.1535 399.738 79.4211C397.303 80.6887 394.205 81.3125 390.422 81.3125H377.082V75.9805H390.221C392.816 75.9805 394.929 75.5982 396.519 74.8336C398.108 74.069 399.275 72.9825 400 71.574C400.724 70.1656 401.086 68.4956 401.086 66.5438C401.086 64.5921 400.724 62.8819 400 61.4332C399.275 59.9845 398.108 58.8376 396.499 58.0328C394.889 57.2279 392.776 56.8255 390.14 56.8255H379.758V100.347H373.863V100.367ZM396.821 78.4553L408.812 100.367H401.951L390.14 78.4553H396.8H396.821Z" fill="#0C0C0C"/>
<path d="M505.07 126C477.484 126 455.07 103.565 455.07 76C455.07 48.4346 477.504 26 505.07 26C532.635 26 555.07 48.4346 555.07 76C555.07 103.565 532.635 126 505.07 126ZM505.07 30.004C479.718 30.004 459.094 50.6278 459.094 75.9799C459.094 101.332 479.718 121.956 505.07 121.956C530.422 121.956 551.046 101.332 551.046 75.9799C551.046 50.6278 530.422 30.004 505.07 30.004Z" fill="#0C0C0C"/>
<path d="M516.64 100.367V56.846H506.257C503.622 56.846 501.509 57.2485 499.899 58.0533C498.29 58.8581 497.123 59.9849 496.398 61.4537C495.674 62.9225 495.312 64.6126 495.312 66.5643C495.312 68.5161 495.674 70.1861 496.398 71.5945C497.123 73.003 498.27 74.0895 499.879 74.8541C501.489 75.6187 503.581 76.001 506.177 76.001H519.316V81.3329H505.976C502.193 81.3329 499.095 80.7092 496.66 79.4416C494.225 78.174 492.435 76.4436 491.247 74.2102C490.06 71.9768 489.477 69.4416 489.477 66.5643C489.477 63.6871 490.06 61.1318 491.247 58.8782C492.414 56.6247 494.225 54.8541 496.68 53.5663C499.115 52.2786 502.253 51.6348 506.056 51.6348H522.535V100.387H516.64V100.367ZM506.257 78.4557L494.447 100.367H487.585L499.577 78.4557H506.237H506.257Z" fill="#0C0C0C"/>
<path d="M565.533 46.4024C564.124 46.4024 562.796 46.1408 561.569 45.6177C560.342 45.0946 559.255 44.3501 558.309 43.4246C557.364 42.499 556.639 41.4125 556.116 40.165C555.593 38.9376 555.332 37.6097 555.332 36.2012C555.332 34.7928 555.593 33.4648 556.116 32.2374C556.639 31.0101 557.364 29.9235 558.309 28.9779C559.255 28.0322 560.321 27.3078 561.569 26.7847C562.816 26.2616 564.124 26 565.533 26C566.941 26 568.269 26.2616 569.496 26.7847C570.724 27.3078 571.81 28.0322 572.756 28.9779C573.702 29.9235 574.426 30.9899 574.949 32.2374C575.472 33.4648 575.734 34.7928 575.734 36.2012C575.734 37.6097 575.472 38.9376 574.949 40.165C574.426 41.3924 573.682 42.4789 572.756 43.4246C571.83 44.3702 570.744 45.0946 569.496 45.6177C568.269 46.1408 566.941 46.4024 565.533 46.4024ZM565.533 45.5775C567.263 45.5775 568.853 45.1549 570.261 44.3099C571.69 43.4648 572.816 42.338 573.661 40.9095C574.507 39.4809 574.929 37.9115 574.929 36.1811C574.929 34.4507 574.507 32.8612 573.661 31.4527C572.816 30.0241 571.69 28.8974 570.261 28.0523C568.833 27.2073 567.263 26.7847 565.533 26.7847C563.802 26.7847 562.233 27.2073 560.804 28.0523C559.376 28.8974 558.249 30.0241 557.404 31.4527C556.559 32.8813 556.136 34.4507 556.136 36.1811C556.136 37.9115 556.559 39.4809 557.404 40.9095C558.249 42.338 559.376 43.4648 560.804 44.3099C562.233 45.1549 563.802 45.5775 565.533 45.5775ZM562.293 40.7887V31.3722H566.318C566.961 31.3722 567.505 31.493 567.947 31.7344C568.39 31.9759 568.732 32.3179 568.973 32.7203C569.215 33.1227 569.315 33.6258 569.315 34.169C569.315 34.7123 569.195 35.1952 568.973 35.6378C568.752 36.0805 568.39 36.4024 567.947 36.664C567.505 36.9054 566.961 37.0463 566.318 37.0463H562.716V36.2213H566.297C567.042 36.2213 567.585 36.0402 567.967 35.658C568.329 35.2958 568.531 34.7928 568.531 34.169C568.531 33.5453 568.35 33.0423 567.967 32.7002C567.605 32.3582 567.042 32.1771 566.297 32.1771H563.118V40.7686H562.293V40.7887ZM567.404 36.5634L569.718 40.7887H568.772L566.499 36.5634H567.384H567.404Z" fill="#0C0C0C"/>
<defs>
<linearGradient id="paint0_linear_703_7355" x1="593.5" y1="22" x2="631.515" y2="28.7789" gradientUnits="userSpaceOnUse">
<stop offset="0.24" stop-color="#F72121"/>
<stop offset="0.71" stop-color="#FF9500"/>
<stop offset="1" stop-color="#F0D047"/>
</linearGradient>
</defs>
</svg>
