<svg width="1728" height="300" viewBox="0 0 1728 300" fill="none" xmlns="http://www.w3.org/2000/svg">
<path d="M150 300C67.2434 300 0 232.696 0 150C0 67.3038 67.3038 0 150 0C232.696 0 300 67.3038 300 150C300 232.696 232.696 300 150 300ZM150 12.0121C73.9436 12.0121 12.0724 73.8833 12.0724 149.94C12.0724 225.996 73.9436 287.867 150 287.867C226.056 287.867 287.928 225.996 287.928 149.94C287.928 73.8833 226.056 12.0121 150 12.0121Z" fill="#0C0C0C"/>
<path d="M99.1147 223.099V76.8418H150.242C160.443 76.8418 168.833 78.5923 175.473 82.0933C182.113 85.5943 187.002 90.3026 190.262 96.1577C193.521 102.013 195.091 108.532 195.091 115.715C195.091 121.993 194.004 127.184 191.771 131.288C189.537 135.393 186.64 138.592 183.079 141.007C179.517 143.421 175.594 145.172 171.429 146.319V147.767C175.896 148.069 180.423 149.639 184.95 152.476C189.477 155.313 193.28 159.417 196.298 164.789C199.316 170.162 200.885 176.621 200.885 184.347C200.885 192.073 199.195 198.291 195.875 204.146C192.555 210.001 187.304 214.649 180.06 218.089C172.877 221.53 163.521 223.22 151.992 223.22H99.1147V223.099ZM116.801 141.128H149.638C154.95 141.128 159.779 140.101 164.125 137.989C168.41 135.876 171.851 132.918 174.386 129.115C176.922 125.313 178.189 120.846 178.189 115.715C178.189 109.317 175.956 103.824 171.489 99.2965C167.022 94.7693 159.899 92.536 150.181 92.536H116.741V141.128H116.801ZM116.801 207.405H151.932C163.521 207.405 171.73 205.172 176.62 200.645C181.509 196.117 183.924 190.685 183.924 184.226C183.924 179.276 182.656 174.689 180.121 170.464C177.586 166.238 174.024 162.858 169.316 160.323C164.668 157.787 159.115 156.52 152.716 156.52H116.741V207.345L116.801 207.405Z" fill="#0C0C0C"/>
<path d="M491.772 300C409.015 300 341.772 232.696 341.772 150C341.772 67.3038 409.076 0 491.772 0C574.468 0 641.772 67.3038 641.772 150C641.772 232.696 574.468 300 491.772 300ZM491.772 12.0121C415.716 12.0121 353.844 73.8833 353.844 149.94C353.844 225.996 415.716 287.867 491.772 287.867C567.828 287.867 629.7 225.996 629.7 149.94C629.7 73.8833 567.828 12.0121 491.772 12.0121Z" fill="#0C0C0C"/>
<path d="M439.318 223.099V76.8418H488.755C500.163 76.8418 509.579 78.7734 516.883 82.6366C524.187 86.4997 529.62 91.8116 533.181 98.5722C536.682 105.333 538.493 112.999 538.493 121.631C538.493 130.262 536.742 137.868 533.181 144.568C529.62 151.268 524.247 156.46 516.944 160.262C509.64 164.065 500.344 165.936 488.996 165.936H448.976V149.94H488.392C496.179 149.94 502.517 148.794 507.286 146.5C512.054 144.206 515.555 140.946 517.728 136.721C519.901 132.496 520.988 127.486 520.988 121.631C520.988 115.775 519.901 110.645 517.728 106.299C515.555 101.952 512.054 98.5118 507.225 96.0973C502.396 93.6828 496.058 92.4756 488.151 92.4756H457.004V223.039H439.318V223.099ZM508.191 157.365L544.167 223.099H523.583L488.151 157.365H508.131H508.191Z" fill="#0C0C0C"/>
<path d="M832.94 300C750.183 300 682.94 232.696 682.94 150C682.94 67.3038 750.244 0 832.94 0C915.636 0 982.94 67.3038 982.94 150C982.94 232.696 915.636 300 832.94 300ZM832.94 12.0121C756.884 12.0121 695.012 73.8833 695.012 149.94C695.012 225.996 756.884 287.867 832.94 287.867C908.996 287.867 970.868 225.996 970.868 149.94C970.868 73.8833 908.996 12.0121 832.94 12.0121Z" fill="#0C0C0C"/>
<path d="M780.486 223.099V76.8418H829.922C841.331 76.8418 850.747 78.7734 858.051 82.6366C865.355 86.4997 870.788 91.8116 874.349 98.5722C877.85 105.333 879.661 112.999 879.661 121.631C879.661 130.262 877.91 137.868 874.349 144.568C870.788 151.268 865.415 156.46 858.112 160.262C850.808 164.065 841.512 165.936 830.164 165.936H790.144V149.94H829.56C837.347 149.94 843.685 148.794 848.454 146.5C853.222 144.206 856.723 140.946 858.896 136.721C861.069 132.496 862.156 127.486 862.156 121.631C862.156 115.775 861.069 110.645 858.896 106.299C856.723 101.952 853.222 98.5118 848.393 96.0973C843.564 93.6828 837.226 92.4756 829.319 92.4756H798.172V223.039H780.486V223.099ZM849.359 157.365L885.335 223.099H864.751L829.319 157.365H849.299H849.359Z" fill="#0C0C0C"/>
<path d="M1174.04 300C1091.29 300 1024.04 232.696 1024.04 150C1024.04 67.3038 1091.35 0 1174.04 0C1256.74 0 1324.04 67.3038 1324.04 150C1324.04 232.696 1256.74 300 1174.04 300ZM1174.04 12.0121C1097.99 12.0121 1036.12 73.8833 1036.12 149.94C1036.12 225.996 1097.99 287.867 1174.04 287.867C1250.1 287.867 1311.97 225.996 1311.97 149.94C1311.97 73.8833 1250.1 12.0121 1174.04 12.0121Z" fill="#0C0C0C"/>
<path d="M1121.59 223.099V76.8418H1171.03C1182.43 76.8418 1191.85 78.7734 1199.15 82.6366C1206.46 86.4997 1211.89 91.8116 1215.45 98.5722C1218.95 105.333 1220.76 112.999 1220.76 121.631C1220.76 130.262 1219.01 137.868 1215.45 144.568C1211.89 151.268 1206.52 156.46 1199.21 160.262C1191.91 164.065 1182.61 165.936 1171.27 165.936H1131.25V149.94H1170.66C1178.45 149.94 1184.79 148.794 1189.56 146.5C1194.33 144.206 1197.83 140.946 1200 136.721C1202.17 132.496 1203.26 127.486 1203.26 121.631C1203.26 115.775 1202.17 110.645 1200 106.299C1197.83 101.952 1194.33 98.5118 1189.5 96.0973C1184.67 93.6828 1178.33 92.4756 1170.42 92.4756H1139.27V223.039H1121.59V223.099ZM1190.46 157.365L1226.44 223.099H1205.85L1170.42 157.365H1190.4H1190.46Z" fill="#0C0C0C"/>
<path d="M1515.21 300C1432.45 300 1365.21 232.696 1365.21 150C1365.21 67.3038 1432.51 0 1515.21 0C1597.91 0 1665.21 67.3038 1665.21 150C1665.21 232.696 1597.91 300 1515.21 300ZM1515.21 12.0121C1439.15 12.0121 1377.28 73.8833 1377.28 149.94C1377.28 225.996 1439.15 287.867 1515.21 287.867C1591.27 287.867 1653.14 225.996 1653.14 149.94C1653.14 73.8833 1591.27 12.0121 1515.21 12.0121Z" fill="#0C0C0C"/>
<path d="M1549.92 223.101V92.5371H1518.77C1510.87 92.5371 1504.53 93.7444 1499.7 96.1589C1494.87 98.5734 1491.37 101.954 1489.2 106.36C1487.02 110.767 1485.94 115.837 1485.94 121.692C1485.94 127.547 1487.02 132.557 1489.2 136.783C1491.37 141.008 1494.81 144.267 1499.64 146.561C1504.47 148.855 1510.74 150.002 1518.53 150.002H1557.95V165.998H1517.93C1506.58 165.998 1497.28 164.127 1489.98 160.324C1482.68 156.521 1477.3 151.33 1473.74 144.63C1470.18 137.929 1468.43 130.324 1468.43 121.692C1468.43 113.06 1470.18 105.394 1473.74 98.6337C1477.24 91.8732 1482.68 86.5612 1490.04 82.698C1497.34 78.8349 1506.76 76.9033 1518.17 76.9033H1567.61V223.161H1549.92V223.101ZM1518.77 157.366L1483.34 223.101H1462.76L1498.73 157.366H1518.71H1518.77Z" fill="#0C0C0C"/>
<path d="M1696.6 61.2073C1692.37 61.2073 1688.39 60.4226 1684.71 58.8531C1681.03 57.2837 1677.77 55.0503 1674.93 52.2737C1672.09 49.497 1669.92 46.2374 1668.35 42.495C1666.78 38.8129 1666 34.829 1666 30.6036C1666 26.3783 1666.78 22.3944 1668.35 18.7123C1669.92 15.0302 1672.09 11.7706 1674.93 8.93362C1677.77 6.0966 1680.96 3.92354 1684.71 2.35412C1688.45 0.784705 1692.37 0 1696.6 0C1700.82 0 1704.81 0.784705 1708.49 2.35412C1712.17 3.92354 1715.43 6.0966 1718.27 8.93362C1721.11 11.7706 1723.28 14.9698 1724.85 18.7123C1726.42 22.3944 1727.2 26.3783 1727.2 30.6036C1727.2 34.829 1726.42 38.8129 1724.85 42.495C1723.28 46.1771 1721.05 49.4367 1718.27 52.2737C1715.49 55.1107 1712.23 57.2837 1708.49 58.8531C1704.81 60.4226 1700.82 61.2073 1696.6 61.2073ZM1696.6 58.7324C1701.79 58.7324 1706.56 57.4648 1710.78 54.9296C1715.07 52.3944 1718.45 49.0141 1720.98 44.7284C1723.52 40.4427 1724.79 35.7344 1724.79 30.5433C1724.79 25.3521 1723.52 20.5835 1720.98 16.3581C1718.45 12.0724 1715.07 8.69218 1710.78 6.15697C1706.5 3.62176 1701.79 2.35412 1696.6 2.35412C1691.41 2.35412 1686.7 3.62176 1682.41 6.15697C1678.13 8.69218 1674.75 12.0724 1672.21 16.3581C1669.68 20.6439 1668.41 25.3521 1668.41 30.5433C1668.41 35.7344 1669.68 40.4427 1672.21 44.7284C1674.75 49.0141 1678.13 52.3944 1682.41 54.9296C1686.7 57.4648 1691.41 58.7324 1696.6 58.7324ZM1686.88 44.3662V16.1167H1698.95C1700.88 16.1167 1702.51 16.4789 1703.84 17.2032C1705.17 17.9276 1706.2 18.9538 1706.92 20.161C1707.64 21.3682 1707.95 22.8773 1707.95 24.507C1707.95 26.1368 1707.58 27.5855 1706.92 28.9135C1706.26 30.2415 1705.17 31.2073 1703.84 31.992C1702.51 32.7163 1700.88 33.1388 1698.95 33.1388H1688.15V30.664H1698.89C1701.13 30.664 1702.76 30.1207 1703.9 28.9739C1704.99 27.8873 1705.59 26.3783 1705.59 24.507C1705.59 22.6358 1705.05 21.1268 1703.9 20.1006C1702.82 19.0745 1701.13 18.5312 1698.89 18.5312H1689.36V44.3059H1686.88V44.3662ZM1702.21 31.6901L1709.15 44.3662H1706.32L1699.5 31.6901H1702.15H1702.21Z" fill="#0C0C0C"/>
</svg>
