<svg width="1296" height="225" viewBox="0 0 1296 225" fill="none" xmlns="http://www.w3.org/2000/svg">
<path d="M112.5 225C50.4326 225 0 174.522 0 112.5C0 50.4779 50.4778 0 112.5 0C174.522 0 225 50.4779 225 112.5C225 174.522 174.522 225 112.5 225ZM112.5 9.00905C55.4577 9.00905 9.05433 55.4125 9.05433 112.455C9.05433 169.497 55.4577 215.9 112.5 215.9C169.542 215.9 215.946 169.497 215.946 112.455C215.946 55.4125 169.542 9.00905 112.5 9.00905Z" fill="white"/>
<path d="M74.3359 167.324V57.6309H112.681C120.332 57.6309 126.625 58.9437 131.605 61.5695C136.584 64.1953 140.251 67.7265 142.696 72.1178C145.141 76.5092 146.318 81.3984 146.318 86.7858C146.318 91.494 145.503 95.3874 143.828 98.4659C142.153 101.544 139.98 103.944 137.309 105.755C134.638 107.565 131.695 108.878 128.571 109.739V110.825C131.922 111.051 135.317 112.228 138.712 114.356C142.108 116.484 144.96 119.562 147.223 123.592C149.487 127.621 150.664 132.465 150.664 138.26C150.664 144.054 149.396 148.717 146.906 153.109C144.416 157.5 140.478 160.986 135.045 163.566C129.658 166.147 122.641 167.415 113.994 167.415H74.3359V167.324ZM87.6005 105.845H112.228C116.212 105.845 119.834 105.076 123.093 103.491C126.308 101.907 128.888 99.6882 130.79 96.8361C132.691 93.984 133.642 90.6339 133.642 86.7858C133.642 81.987 131.967 77.8673 128.617 74.4719C125.266 71.0765 119.924 69.4015 112.636 69.4015H87.5553V105.845H87.6005ZM87.6005 155.553H113.949C122.641 155.553 128.798 153.878 132.465 150.483C136.132 147.088 137.943 143.013 137.943 138.169C137.943 134.457 136.992 131.016 135.091 127.847C133.189 124.678 130.518 122.143 126.987 120.242C123.501 118.34 119.336 117.389 114.537 117.389H87.5553V155.508L87.6005 155.553Z" fill="white"/>
<path d="M368.829 225C306.762 225 256.329 174.522 256.329 112.5C256.329 50.4779 306.807 0 368.829 0C430.851 0 481.329 50.4779 481.329 112.5C481.329 174.522 430.851 225 368.829 225ZM368.829 9.00905C311.787 9.00905 265.383 55.4125 265.383 112.455C265.383 169.497 311.787 215.9 368.829 215.9C425.871 215.9 472.275 169.497 472.275 112.455C472.275 55.4125 425.871 9.00905 368.829 9.00905Z" fill="white"/>
<path d="M329.488 167.324V57.6309H366.566C375.122 57.6309 382.184 59.0795 387.662 61.9769C393.14 64.8743 397.215 68.8582 399.886 73.9286C402.511 78.9991 403.87 84.7486 403.87 91.2224C403.87 97.6963 402.557 103.4 399.886 108.426C397.215 113.451 393.185 117.344 387.708 120.196C382.23 123.048 375.258 124.452 366.747 124.452H336.732V112.455H366.294C372.134 112.455 376.888 111.595 380.464 109.874C384.041 108.154 386.666 105.709 388.296 102.54C389.926 99.3713 390.741 95.6138 390.741 91.2224C390.741 86.8311 389.926 82.983 388.296 79.7234C386.666 76.4638 384.041 73.8834 380.419 72.0725C376.797 70.2616 372.044 69.3562 366.113 69.3562H342.753V167.279H329.488V167.324ZM381.143 118.023L408.125 167.324H392.687L366.113 118.023H381.098H381.143Z" fill="white"/>
<path d="M624.705 225C562.638 225 512.205 174.522 512.205 112.5C512.205 50.4779 562.683 0 624.705 0C686.727 0 737.205 50.4779 737.205 112.5C737.205 174.522 686.727 225 624.705 225ZM624.705 9.00905C567.663 9.00905 521.259 55.4125 521.259 112.455C521.259 169.497 567.663 215.9 624.705 215.9C681.747 215.9 728.151 169.497 728.151 112.455C728.151 55.4125 681.747 9.00905 624.705 9.00905Z" fill="white"/>
<path d="M585.364 167.324V57.6309H622.442C630.998 57.6309 638.06 59.0795 643.538 61.9769C649.016 64.8743 653.091 68.8582 655.762 73.9286C658.387 78.9991 659.746 84.7486 659.746 91.2224C659.746 97.6963 658.433 103.4 655.762 108.426C653.091 113.451 649.061 117.344 643.584 120.196C638.106 123.048 631.134 124.452 622.623 124.452H592.608V112.455H622.17C628.01 112.455 632.764 111.595 636.34 109.874C639.917 108.154 642.542 105.709 644.172 102.54C645.802 99.3713 646.617 95.6138 646.617 91.2224C646.617 86.8311 645.802 82.983 644.172 79.7234C642.542 76.4638 639.917 73.8834 636.295 72.0725C632.673 70.2616 627.92 69.3562 621.989 69.3562H598.629V167.279H585.364V167.324ZM637.019 118.023L664.001 167.324H648.563L621.989 118.023H636.974H637.019Z" fill="white"/>
<path d="M880.532 225C818.465 225 768.032 174.522 768.032 112.5C768.032 50.4779 818.51 0 880.532 0C942.554 0 993.032 50.4779 993.032 112.5C993.032 174.522 942.554 225 880.532 225ZM880.532 9.00905C823.49 9.00905 777.087 55.4125 777.087 112.455C777.087 169.497 823.49 215.9 880.532 215.9C937.575 215.9 983.978 169.497 983.978 112.455C983.978 55.4125 937.575 9.00905 880.532 9.00905Z" fill="white"/>
<path d="M841.191 167.324V57.6309H878.269C886.825 57.6309 893.887 59.0795 899.365 61.9769C904.843 64.8743 908.918 68.8582 911.589 73.9286C914.215 78.9991 915.573 84.7486 915.573 91.2224C915.573 97.6963 914.26 103.4 911.589 108.426C908.918 113.451 904.889 117.344 899.411 120.196C893.933 123.048 886.961 124.452 878.45 124.452H848.435V112.455H877.997C883.837 112.455 888.591 111.595 892.167 109.874C895.744 108.154 898.369 105.709 899.999 102.54C901.629 99.3713 902.444 95.6138 902.444 91.2224C902.444 86.8311 901.629 82.983 899.999 79.7234C898.369 76.4638 895.744 73.8834 892.122 72.0725C888.5 70.2616 883.747 69.3562 877.816 69.3562H854.456V167.279H841.191V167.324ZM892.846 118.023L919.828 167.324H904.391L877.816 118.023H892.801H892.846Z" fill="white"/>
<path d="M1136.41 225C1074.34 225 1023.91 174.522 1023.91 112.5C1023.91 50.4779 1074.39 0 1136.41 0C1198.43 0 1248.91 50.4779 1248.91 112.5C1248.91 174.522 1198.43 225 1136.41 225ZM1136.41 9.00905C1079.37 9.00905 1032.96 55.4125 1032.96 112.455C1032.96 169.497 1079.37 215.9 1136.41 215.9C1193.45 215.9 1239.85 169.497 1239.85 112.455C1239.85 55.4125 1193.45 9.00905 1136.41 9.00905Z" fill="white"/>
<path d="M1162.44 167.326V69.4031H1139.08C1133.15 69.4031 1128.4 70.3085 1124.77 72.1194C1121.15 73.9303 1118.53 76.4655 1116.9 79.7703C1115.27 83.0751 1114.45 86.8779 1114.45 91.2693C1114.45 95.6606 1115.27 99.4182 1116.9 102.587C1118.53 105.756 1121.11 108.201 1124.73 109.921C1128.35 111.641 1133.06 112.502 1138.9 112.502H1168.46V124.499H1138.45C1129.93 124.499 1122.96 123.095 1117.48 120.243C1112.01 117.391 1107.98 113.498 1105.31 108.473C1102.64 103.447 1101.32 97.7431 1101.32 91.2693C1101.32 84.7954 1102.64 79.046 1105.31 73.9756C1107.93 68.9051 1112.01 64.9212 1117.53 62.0238C1123.01 59.1264 1130.07 57.6777 1138.63 57.6777H1175.7V167.371H1162.44V167.326ZM1139.08 118.025L1112.51 167.326H1097.07L1124.05 118.025H1139.03H1139.08Z" fill="white"/>
<path d="M1272.45 45.9054C1269.28 45.9054 1266.29 45.3169 1263.53 44.1398C1260.77 42.9628 1258.32 41.2878 1256.2 39.2053C1254.07 37.1228 1252.44 34.6781 1251.26 31.8712C1250.08 29.1097 1249.5 26.1217 1249.5 22.9527C1249.5 19.7837 1250.08 16.7958 1251.26 14.0342C1252.44 11.2726 1254.07 8.82798 1256.2 6.70022C1258.32 4.57245 1260.72 2.94265 1263.53 1.76559C1266.34 0.588529 1269.28 0 1272.45 0C1275.62 0 1278.61 0.588529 1281.37 1.76559C1284.13 2.94265 1286.57 4.57245 1288.7 6.70022C1290.83 8.82798 1292.46 11.2274 1293.64 14.0342C1294.81 16.7958 1295.4 19.7837 1295.4 22.9527C1295.4 26.1217 1294.81 29.1097 1293.64 31.8712C1292.46 34.6328 1290.78 37.0775 1288.7 39.2053C1286.62 41.333 1284.17 42.9628 1281.37 44.1398C1278.61 45.3169 1275.62 45.9054 1272.45 45.9054ZM1272.45 44.0493C1276.34 44.0493 1279.92 43.0986 1283.09 41.1972C1286.3 39.2958 1288.84 36.7606 1290.74 33.5463C1292.64 30.332 1293.59 26.8008 1293.59 22.9074C1293.59 19.0141 1292.64 15.4376 1290.74 12.2686C1288.84 9.05432 1286.3 6.51914 1283.09 4.61773C1279.87 2.71632 1276.34 1.76559 1272.45 1.76559C1268.56 1.76559 1265.02 2.71632 1261.81 4.61773C1258.6 6.51914 1256.06 9.05432 1254.16 12.2686C1252.26 15.4829 1251.31 19.0141 1251.31 22.9074C1251.31 26.8008 1252.26 30.332 1254.16 33.5463C1256.06 36.7606 1258.6 39.2958 1261.81 41.1972C1265.02 43.0986 1268.56 44.0493 1272.45 44.0493ZM1265.16 33.2746V12.0875H1274.21C1275.66 12.0875 1276.89 12.3592 1277.88 12.9024C1278.88 13.4457 1279.65 14.2153 1280.19 15.1207C1280.73 16.0262 1280.96 17.1579 1280.96 18.3803C1280.96 19.6026 1280.69 20.6891 1280.19 21.6851C1279.69 22.6811 1278.88 23.4055 1277.88 23.994C1276.89 24.5372 1275.66 24.8541 1274.21 24.8541H1266.11V22.998H1274.17C1275.84 22.998 1277.07 22.5906 1277.93 21.7304C1278.74 20.9155 1279.19 19.7837 1279.19 18.3803C1279.19 16.9769 1278.79 15.8451 1277.93 15.0755C1277.11 14.3058 1275.84 13.8984 1274.17 13.8984H1267.02V33.2294H1265.16V33.2746ZM1276.66 23.7676L1281.87 33.2746H1279.74L1274.62 23.7676H1276.61H1276.66Z" fill="white"/>
</svg>
