<svg width="224" height="76" viewBox="0 0 224 76" fill="none" xmlns="http://www.w3.org/2000/svg">
<path d="M98.4747 54V20.308H101.551V51.2362H117.607V54H98.4747ZM133.746 54.5264C131.563 54.5264 129.633 53.9726 127.955 52.8649C126.288 51.7572 124.983 50.2272 124.04 48.275C123.097 46.3118 122.625 44.047 122.625 41.4807C122.625 38.8924 123.097 36.6166 124.04 34.6534C124.983 32.6793 126.288 31.1439 127.955 30.0471C129.633 28.9394 131.563 28.3855 133.746 28.3855C135.929 28.3855 137.853 28.9394 139.52 30.0471C141.187 31.1548 142.493 32.6903 143.436 34.6534C144.39 36.6166 144.867 38.8924 144.867 41.4807C144.867 44.047 144.395 46.3118 143.452 48.275C142.509 50.2272 141.198 51.7572 139.52 52.8649C137.853 53.9726 135.929 54.5264 133.746 54.5264ZM133.746 51.8449C135.501 51.8449 136.987 51.3733 138.204 50.4301C139.422 49.4869 140.343 48.2311 140.968 46.6628C141.604 45.0944 141.922 43.3671 141.922 41.4807C141.922 39.5943 141.604 37.8614 140.968 36.2821C140.343 34.7028 139.422 33.4361 138.204 32.4819C136.987 31.5277 135.501 31.0506 133.746 31.0506C132.002 31.0506 130.516 31.5277 129.288 32.4819C128.07 33.4361 127.144 34.7028 126.507 36.2821C125.882 37.8614 125.57 39.5943 125.57 41.4807C125.57 43.3671 125.882 45.0944 126.507 46.6628C127.144 48.2311 128.07 49.4869 129.288 50.4301C130.505 51.3733 131.991 51.8449 133.746 51.8449ZM158.353 54.5758C156.828 54.5758 155.435 54.2797 154.174 53.6874C152.913 53.0842 151.909 52.2178 151.164 51.0881C150.418 49.9475 150.045 48.5656 150.045 46.9425C150.045 45.6922 150.281 44.6393 150.752 43.7838C151.224 42.9284 151.893 42.2265 152.759 41.6781C153.626 41.1297 154.651 40.6965 155.836 40.3784C157.02 40.0604 158.325 39.8136 159.751 39.6381C161.166 39.4627 162.361 39.3091 163.338 39.1775C164.325 39.0459 165.076 38.8375 165.591 38.5524C166.107 38.2672 166.365 37.8066 166.365 37.1705V36.5782C166.365 34.8563 165.849 33.5019 164.818 32.5148C163.798 31.5167 162.329 31.0177 160.409 31.0177C158.589 31.0177 157.103 31.418 155.951 32.2187C154.81 33.0193 154.01 33.9625 153.549 35.0483L150.769 34.0447C151.339 32.6628 152.129 31.5606 153.138 30.7381C154.147 29.9045 155.276 29.3068 156.527 28.9449C157.777 28.572 159.044 28.3855 160.327 28.3855C161.292 28.3855 162.296 28.5117 163.338 28.7639C164.39 29.0162 165.367 29.4549 166.266 30.08C167.165 30.6942 167.894 31.5551 168.454 32.6628C169.013 33.7596 169.293 35.1525 169.293 36.8414V54H166.365V50.0024H166.184C165.833 50.7482 165.312 51.472 164.621 52.1739C163.93 52.8758 163.063 53.4516 162.021 53.9013C160.98 54.351 159.757 54.5758 158.353 54.5758ZM158.748 51.8943C160.305 51.8943 161.654 51.5488 162.795 50.8578C163.935 50.1669 164.813 49.2511 165.427 48.1105C166.052 46.9589 166.365 45.6922 166.365 44.3103V40.6581C166.145 40.8665 165.778 41.0529 165.262 41.2174C164.758 41.382 164.171 41.53 163.502 41.6616C162.844 41.7823 162.186 41.8865 161.528 41.9742C160.87 42.0619 160.278 42.1387 159.751 42.2045C158.325 42.38 157.108 42.6542 156.099 43.0271C155.09 43.4 154.317 43.9154 153.779 44.5735C153.242 45.2206 152.973 46.0541 152.973 47.0741C152.973 48.6095 153.522 49.7995 154.618 50.644C155.715 51.4775 157.092 51.8943 158.748 51.8943ZM180.011 38.2069V54H177.082V28.731H179.929V32.6957H180.192C180.784 31.4016 181.705 30.3652 182.956 29.5865C184.217 28.7968 185.774 28.402 187.628 28.402C189.328 28.402 190.819 28.7584 192.102 29.4713C193.397 30.1732 194.4 31.2097 195.113 32.5806C195.837 33.9515 196.199 35.635 196.199 37.6311V54H193.27V37.8121C193.27 35.7392 192.689 34.0996 191.527 32.8932C190.375 31.6867 188.829 31.0835 186.887 31.0835C185.56 31.0835 184.381 31.3687 183.35 31.939C182.319 32.5093 181.502 33.3319 180.899 34.4067C180.307 35.4705 180.011 36.7372 180.011 38.2069ZM220.888 34.2751L218.206 35.0318C217.943 34.2751 217.57 33.5896 217.088 32.9754C216.605 32.3612 215.974 31.8732 215.196 31.5113C214.428 31.1493 213.474 30.9684 212.333 30.9684C210.622 30.9684 209.218 31.3742 208.122 32.1858C207.025 32.9974 206.477 34.0447 206.477 35.3279C206.477 36.4137 206.849 37.2966 207.595 37.9766C208.352 38.6456 209.515 39.1775 211.083 39.5723L214.9 40.51C217.016 41.0255 218.601 41.8426 219.654 42.9613C220.718 44.08 221.25 45.4838 221.25 47.1728C221.25 48.5985 220.855 49.8653 220.065 50.973C219.276 52.0807 218.173 52.9526 216.759 53.5887C215.355 54.2139 213.726 54.5264 211.873 54.5264C209.405 54.5264 207.37 53.9726 205.769 52.8649C204.168 51.7462 203.142 50.134 202.693 48.0282L205.506 47.3373C205.868 48.8398 206.575 49.9749 207.628 50.7427C208.692 51.5104 210.09 51.8943 211.823 51.8943C213.764 51.8943 215.316 51.461 216.479 50.5946C217.641 49.7172 218.223 48.6205 218.223 47.3044C218.223 46.2844 217.883 45.4289 217.203 44.738C216.523 44.0361 215.492 43.5206 214.11 43.1916L209.981 42.2045C207.787 41.6781 206.164 40.8446 205.111 39.7039C204.058 38.5633 203.532 37.1485 203.532 35.4595C203.532 34.0667 203.91 32.8438 204.667 31.7909C205.424 30.7271 206.466 29.8936 207.793 29.2904C209.12 28.6871 210.633 28.3855 212.333 28.3855C214.647 28.3855 216.495 28.912 217.877 29.9649C219.27 31.0068 220.274 32.4435 220.888 34.2751Z" fill="#0C0C0C"/>
<path d="M52.1419 23.1195C51.4306 23.1195 50.7599 22.9895 50.14 22.7295C49.5201 22.4695 48.9714 22.0995 48.4937 21.6395C48.0161 21.1795 47.6503 20.6394 47.3861 20.0194C47.1219 19.4094 46.9897 18.7494 46.9897 18.0494C46.9897 17.3494 47.1219 16.6895 47.3861 16.0795C47.6503 15.4695 48.0161 14.9295 48.4937 14.4595C48.9714 13.9895 49.5099 13.6295 50.14 13.3695C50.77 13.1095 51.4306 12.9795 52.1419 12.9795C52.8533 12.9795 53.524 13.1095 54.1438 13.3695C54.7637 13.6295 55.3125 13.9895 55.7901 14.4595C56.2677 14.9295 56.6335 15.4595 56.8978 16.0795C57.162 16.6895 57.2941 17.3494 57.2941 18.0494C57.2941 18.7494 57.162 19.4094 56.8978 20.0194C56.6335 20.6294 56.2575 21.1695 55.7901 21.6395C55.3226 22.1095 54.7739 22.4695 54.1438 22.7295C53.524 22.9895 52.8533 23.1195 52.1419 23.1195ZM52.1419 22.7095C53.0159 22.7095 53.8187 22.4995 54.53 22.0795C55.2515 21.6595 55.8206 21.0995 56.2474 20.3895C56.6742 19.6795 56.8876 18.8994 56.8876 18.0394C56.8876 17.1794 56.6742 16.3895 56.2474 15.6895C55.8206 14.9795 55.2515 14.4195 54.53 13.9995C53.8085 13.5795 53.0159 13.3695 52.1419 13.3695C51.268 13.3695 50.4753 13.5795 49.7538 13.9995C49.0323 14.4195 48.4633 14.9795 48.0365 15.6895C47.6097 16.3995 47.3963 17.1794 47.3963 18.0394C47.3963 18.8994 47.6097 19.6795 48.0365 20.3895C48.4633 21.0995 49.0323 21.6595 49.7538 22.0795C50.4753 22.4995 51.268 22.7095 52.1419 22.7095ZM50.5058 20.3295V15.6494H52.5383C52.8634 15.6494 53.1378 15.7095 53.3614 15.8295C53.5849 15.9495 53.7577 16.1195 53.8797 16.3195C54.0016 16.5195 54.0524 16.7694 54.0524 17.0394C54.0524 17.3094 53.9914 17.5494 53.8797 17.7694C53.7679 17.9894 53.5849 18.1494 53.3614 18.2794C53.1378 18.3994 52.8634 18.4695 52.5383 18.4695H50.7192V18.0595H52.5281C52.9041 18.0595 53.1785 17.9694 53.3715 17.7794C53.5545 17.5994 53.6561 17.3494 53.6561 17.0394C53.6561 16.7294 53.5646 16.4795 53.3715 16.3095C53.1886 16.1395 52.9041 16.0494 52.5281 16.0494H50.9225V20.3195H50.5058V20.3295ZM53.087 18.2295L54.2556 20.3295H53.778L52.6297 18.2295H53.0768H53.087Z" fill="#0C0C0C"/>
<path d="M25.2527 62.6951C11.3205 62.6951 0 51.5451 0 37.8451C0 24.1451 11.3307 12.9951 25.2527 12.9951C39.1747 12.9951 50.5054 24.1451 50.5054 37.8451C50.5054 51.5451 39.1747 62.6951 25.2527 62.6951ZM25.2527 14.9851C12.4485 14.9851 2.03241 25.2351 2.03241 37.8351C2.03241 50.4351 12.4485 60.6851 25.2527 60.6851C38.0569 60.6851 48.473 50.4351 48.473 37.8351C48.473 25.2351 38.0569 14.9851 25.2527 14.9851Z" fill="#0C0C0C"/>
<path d="M16.6982 49.9673V25.7373H25.3055C27.0229 25.7373 28.4354 26.0273 29.5533 26.6073C30.6711 27.1873 31.4942 27.9673 32.043 28.9373C32.5917 29.9073 32.8559 30.9873 32.8559 32.1773C32.8559 33.2173 32.673 34.0773 32.297 34.7573C31.921 35.4373 31.4332 35.9673 30.8337 36.3673C30.2341 36.7673 29.5736 37.0573 28.8724 37.2473V37.4873C29.6244 37.5373 30.3865 37.7973 31.1487 38.2673C31.9108 38.7373 32.5511 39.4173 33.0592 40.3073C33.5673 41.1973 33.8315 42.2673 33.8315 43.5473C33.8315 44.8273 33.5469 45.8573 32.988 46.8273C32.4291 47.7973 31.545 48.5674 30.3256 49.1374C29.1163 49.7074 27.5412 49.9873 25.6002 49.9873H16.6982V49.9673ZM19.6757 36.3873H25.2039C26.0982 36.3873 26.9111 36.2173 27.6428 35.8673C28.3643 35.5173 28.9435 35.0273 29.3703 34.3973C29.7971 33.7673 30.0105 33.0273 30.0105 32.1773C30.0105 31.1173 29.6346 30.2073 28.8826 29.4573C28.1306 28.7073 26.9315 28.3373 25.2954 28.3373H19.6656V36.3873H19.6757ZM19.6757 47.3673H25.59C27.5412 47.3673 28.9232 46.9973 29.7464 46.2473C30.5695 45.4973 30.976 44.5972 30.976 43.5272C30.976 42.7072 30.7625 41.9473 30.3357 41.2473C29.9089 40.5473 29.3094 39.9873 28.5167 39.5673C27.7342 39.1473 26.7993 38.9373 25.7222 38.9373H19.6656V47.3573L19.6757 47.3673Z" fill="#0C0C0C"/>
<path d="M73 0V75.67" stroke="url(#paint0_linear_596_29)" stroke-width="2.76388" stroke-miterlimit="10"/>
<defs>
<linearGradient id="paint0_linear_596_29" x1="55.3535" y1="4.33425e-07" x2="97.1457" y2="15.3652" gradientUnits="userSpaceOnUse">
<stop offset="0.24" stop-color="#F72121"/>
<stop offset="0.71" stop-color="#FF9500"/>
<stop offset="1" stop-color="#F0D047"/>
</linearGradient>
</defs>
</svg>
